<svg width="47" height="67" xmlns="http://www.w3.org/2000/svg"><g fill="#31CB9E" fill-rule="nonzero"><path d="M20 33.509l25.03 14.317c.878.499 1.97-.136 1.97-1.134V20.31c0-1.013-1.092-1.633-1.97-1.134L20 33.509zM44.473 12.835L27.377.27c-.794-.585-1.93-.165-2.133.765L19 29l25.318-14.006c.84-.464.918-1.59.155-2.159M27.36 66.738l17.112-12.57a1.28 1.28 0 0 0-.14-2.16L19 38l6.243 27.973c.187.93 1.34 1.334 2.118.765"/><path d="M13.497 33.008L19.97 2.592c.254-1.196-1.094-2.058-2.053-1.317L1.348 14.047A3.467 3.467 0 0 0 0 16.801v32.398c0 1.074.494 2.103 1.348 2.754l16.568 12.772c.959.741 2.307-.121 2.053-1.317l-6.472-30.4z"/></g></svg>